<svg width="21" height="21" viewBox="0 0 21 21" fill="none" xmlns="http://www.w3.org/2000/svg">
<path d="M20.5607 1.00008C20.5607 0.447795 20.113 7.96546e-05 19.5607 7.94017e-05L10.5607 8.02025e-05C10.0084 7.98653e-05 9.56071 0.447795 9.56071 1.00008C9.56071 1.55236 10.0084 2.00008 10.5607 2.00008L18.5607 2.00008L18.5607 10.0001C18.5607 10.5524 19.0084 11.0001 19.5607 11.0001C20.113 11.0001 20.5607 10.5524 20.5607 10.0001L20.5607 1.00008ZM1 19.5608L1.70711 20.2679L20.2678 1.70719L19.5607 1.00008L18.8536 0.292973L0.292893 18.8537L1 19.5608Z" fill="white" fill-opacity="0.933333"/>
</svg>
